<svg xmlns="http://www.w3.org/2000/svg" viewBox="0 0 200 200" fill="none">
  
  <rect x="20" y="20" width="160" height="160" rx="8" fill="#E3EAFA"></rect>
  
  <g stroke="#A8B4DD" stroke-width="0.8" opacity="0.6">
    <path d="M40 20 V180 M60 20 V180 M80 20 V180 M100 20 V180 M120 20 V180 M140 20 V180 M160 20 V180"></path>
    <path d="M20 40 H180 M20 60 H180 M20 80 H180 M20 100 H180 M20 120 H180 M20 140 H180 M20 160 H180"></path>
  </g>
  
  <path d="M50 140 Q100 50 150 140" stroke="#2D388A" stroke-width="4" stroke-linecap="round" fill="none"></path>
  <circle cx="100" cy="76" r="5" fill="#00AEEF"></circle>
  
  <circle cx="50" cy="140" r="4" fill="#2D388A"></circle>
  <circle cx="150" cy="140" r="4" fill="#2D388A"></circle>
  
  <path d="M40 165 L160 60" stroke="#00AEEF" stroke-width="3" stroke-linecap="round" opacity="0.7"></path>
</svg>