<svg width="1200" height="1200" xmlns="http://www.w3.org/2000/svg" xmlns:xlink="http://www.w3.org/1999/xlink" version="1.1"><g transform="scale(5.6455827640933025) translate(-21.67222128974067, -21.672225104437942)">            <linearGradient id="SvgjsLinearGradient1011"><stop id="SvgjsStop1012" stop-color="#2d388a" offset="0"/><stop id="SvgjsStop1013" stop-color="#00aeef" offset="1"/></linearGradient>            <g fill="url(#SvgjsLinearGradient1011)"><linearGradient id="SvgjsLinearGradient1011"><stop id="SvgjsStop1012" stop-color="#2d388a" offset="0"/><stop id="SvgjsStop1013" stop-color="#00aeef" offset="1"/></linearGradient><g xmlns="http://www.w3.org/2000/svg"><path d="M84.5,82.1c9,0,16.4-6.7,17.6-15.4h30.4l13,18.8c0.5,0.7,1.2,1,2,1h73.7c1.3,0,2.4-1.1,2.4-2.4c0-1.3-1.1-2.4-2.4-2.4   h-72.5l-13-18.8c-0.5-0.7-1.2-1-2-1H102c-1.2-8.7-8.6-15.4-17.6-15.4c-9.8,0-17.8,8-17.8,17.8S74.7,82.1,84.5,82.1z M84.5,51.4   c7.1,0,12.9,5.8,12.9,12.9c0,0,0,0,0,0c0,0,0,0,0,0c0,7.1-5.8,12.9-12.9,12.9c-7.1,0-12.9-5.8-12.9-12.9S77.3,51.4,84.5,51.4z"/><path d="M221.2,109.5h-76.7c-1.2-8.7-8.6-15.4-17.6-15.4c-9.8,0-17.8,8-17.8,17.8s8,17.8,17.8,17.8c9,0,16.4-6.7,17.6-15.4h76.7   c1.3,0,2.4-1.1,2.4-2.4C223.6,110.6,222.5,109.5,221.2,109.5z M126.9,124.9c-7.1,0-12.9-5.8-12.9-12.9S119.8,99,126.9,99   c7.1,0,12.9,5.8,12.9,12.9c0,0,0,0,0,0s0,0,0,0C139.8,119.1,134,124.9,126.9,124.9z"/><path d="M221.2,140.3h-66.9c-0.8,0-1.6,0.4-2.1,1.1l-9.4,15h-41.2l-10.2-19c-0.4-0.8-1.2-1.3-2.1-1.3H67.7   c-1.2-8.7-8.6-15.4-17.6-15.4c-9.8,0-17.8,8-17.8,17.8s8,17.8,17.8,17.8c9,0,16.4-6.7,17.6-15.4h20.1l10.2,19   c0.4,0.8,1.2,1.3,2.1,1.3h44c0.8,0,1.6-0.4,2.1-1.1l9.4-15h65.5c1.3,0,2.4-1.1,2.4-2.4C223.6,141.4,222.5,140.3,221.2,140.3z    M50.1,151.6c-7.1,0-12.9-5.8-12.9-12.9s5.8-12.9,12.9-12.9c7.1,0,12.9,5.8,12.9,12.9c0,0,0,0,0,0s0,0,0,0   C63.1,145.8,57.3,151.6,50.1,151.6z"/><path d="M221.2,168.6h-38.6c-0.9,0-1.7,0.5-2.1,1.2l-11.4,19.4h-58.2c-1.2-8.7-8.6-15.4-17.6-15.4c-9.8,0-17.8,8-17.8,17.8   c0,9.8,8,17.8,17.8,17.8c9,0,16.4-6.7,17.6-15.4h59.6c0.9,0,1.7-0.5,2.1-1.2l11.4-19.4h37.2c1.3,0,2.4-1.1,2.4-2.4   C223.6,169.7,222.5,168.6,221.2,168.6z M93.3,204.6c-7.1,0-12.9-5.8-12.9-12.9c0-7.1,5.8-12.9,12.9-12.9c7.1,0,12.9,5.8,12.9,12.9   C106.3,198.8,100.5,204.6,93.3,204.6z"/></g></g>        </g></svg>